<?xml version="1.0" encoding="UTF-8" standalone="no"?>
<!-- Created with Inkscape (http://www.inkscape.org/) -->

<svg
   xmlns:dc="http://purl.org/dc/elements/1.1/"
   xmlns:cc="http://creativecommons.org/ns#"
   xmlns:rdf="http://www.w3.org/1999/02/22-rdf-syntax-ns#"
   xmlns:svg="http://www.w3.org/2000/svg"
   xmlns="http://www.w3.org/2000/svg"
   xmlns:sodipodi="http://sodipodi.sourceforge.net/DTD/sodipodi-0.dtd"
   xmlns:inkscape="http://www.inkscape.org/namespaces/inkscape"
   width="100mm"
   height="100mm"
   viewBox="0 0 100 100"
   version="1.1"
   id="svg8"
   inkscape:version="0.92.5 (2060ec1f9f, 2020-04-08)"
   sodipodi:docname="hielen2.svg"
   inkscape:export-filename="/home/fantamodeman/SVILUPPOandTESTING/python_sandbox/dev/modules/hielen2/art/hielen.png"
   inkscape:export-xdpi="120"
   inkscape:export-ydpi="120">
  <defs
     id="defs2">
    <inkscape:perspective
       sodipodi:type="inkscape:persp3d"
       inkscape:vp_x="0 : 50 : 1"
       inkscape:vp_y="0 : 1000 : 0"
       inkscape:vp_z="100 : 50 : 1"
       inkscape:persp3d-origin="50 : 33.333333 : 1"
       id="perspective909" />
  </defs>
  <sodipodi:namedview
     id="base"
     pagecolor="#ffffff"
     bordercolor="#666666"
     borderopacity="1.0"
     inkscape:pageopacity="0.0"
     inkscape:pageshadow="2"
     inkscape:zoom="1"
     inkscape:cx="579.19289"
     inkscape:cy="227.39381"
     inkscape:document-units="mm"
     inkscape:current-layer="layer1"
     showgrid="false"
     inkscape:window-width="1918"
     inkscape:window-height="1056"
     inkscape:window-x="2"
     inkscape:window-y="0"
     inkscape:window-maximized="1"
     fit-margin-top="0"
     fit-margin-left="0"
     fit-margin-right="0"
     fit-margin-bottom="0"
     inkscape:object-paths="true"
     inkscape:snap-smooth-nodes="true" />
  <metadata
     id="metadata5">
    <rdf:RDF>
      <cc:Work
         rdf:about="">
        <dc:format>image/svg+xml</dc:format>
        <dc:type
           rdf:resource="http://purl.org/dc/dcmitype/StillImage" />
        <dc:title></dc:title>
      </cc:Work>
    </rdf:RDF>
  </metadata>
  <g
     inkscape:label="Livello 1"
     inkscape:groupmode="layer"
     id="layer1"
     transform="translate(-61.232074,-51.358052)">
    <path
       id="path925"
       style="color:#000000;font-style:normal;font-variant:normal;font-weight:normal;font-stretch:normal;font-size:medium;line-height:normal;font-family:sans-serif;font-variant-ligatures:normal;font-variant-position:normal;font-variant-caps:normal;font-variant-numeric:normal;font-variant-alternates:normal;font-feature-settings:normal;text-indent:0;text-align:start;text-decoration:none;text-decoration-line:none;text-decoration-style:solid;text-decoration-color:#000000;letter-spacing:normal;word-spacing:normal;text-transform:none;writing-mode:lr-tb;direction:ltr;text-orientation:mixed;dominant-baseline:auto;baseline-shift:baseline;text-anchor:start;white-space:normal;shape-padding:0;clip-rule:nonzero;display:inline;overflow:visible;visibility:visible;opacity:1;isolation:auto;mix-blend-mode:normal;color-interpolation:sRGB;color-interpolation-filters:linearRGB;solid-color:#000000;solid-opacity:1;vector-effect:none;fill:#ccff00;fill-opacity:1;fill-rule:evenodd;stroke:none;stroke-width:7.27125263;stroke-linecap:butt;stroke-linejoin:round;stroke-miterlimit:4;stroke-dasharray:none;stroke-dashoffset:0;stroke-opacity:1;color-rendering:auto;image-rendering:auto;shape-rendering:auto;text-rendering:auto;enable-background:accumulate"
       d="m 111.17742,61.35836 a 3.6359901,3.6359901 0 0 0 -2.19913,0.788194 L 78.446846,79.774373 a 3.6359901,3.6359901 0 0 0 -2.28718,3.958713 v 35.171134 a 3.6359901,3.6359901 0 0 0 2.325523,4.0347 l 30.372381,17.53479 a 3.6359901,3.6359901 0 0 0 4.75828,-0.004 l 30.3589,-17.5277 a 3.6359901,3.6359901 0 0 0 2.33049,-4.03185 V 83.747998 a 3.6359901,3.6359901 0 0 0 -2.25735,-3.957294 L 113.50507,62.157206 a 3.6359901,3.6359901 0 0 0 -2.32765,-0.798846 z m -3.58024,9.983064 V 95.048265 L 87.067969,83.194843 Z m 7.27055,0.0015 20.52993,11.851999 -20.52993,11.853387 z M 83.430211,89.492609 103.96085,101.34603 83.430211,113.20016 Z m 55.605199,0 v 23.707551 l -20.53065,-11.85413 z m -31.43823,18.150441 v 23.70754 L 87.065837,119.49715 Z m 7.27055,0 20.53206,11.85414 -20.53206,11.8548 z m 44.91926,-6.28504 a 48.554917,49.999998 0 0 1 -48.55491,50.00004 48.554917,49.999998 0 0 1 -48.554921,-50.00004 48.554917,49.999998 0 0 1 48.554921,-49.999958 48.554917,49.999998 0 0 1 48.55491,49.999958 z"
       inkscape:connector-curvature="0" />
  </g>
</svg>
